<svg width="194px" height="39px" viewBox="0 0 194 39" version="1.1" xmlns="http://www.w3.org/2000/svg" xmlns:xlink="http://www.w3.org/1999/xlink">
    <g id="SUB-NAV___vWKmM7R7" stroke="none" stroke-width="1" fill="none" fill-rule="evenodd">
        <g id="SUB-NAV-SHARES-01___vWKmM7R7" transform="translate(-22.000000, -25.000000)">
            <g id="Group-3___vWKmM7R7" transform="translate(22.000000, 25.000000)">
                <path d="M132.556818,32.9111557 C131.23387,36.1847795 127.680173,39 123.189516,39 C117.156442,39 112.556818,34.1463647 112.556818,28.00072 C112.556818,21.9394759 117.045941,17 123.162658,17 C128.20352,17 131.371997,20.5034655 132.556818,23.2038051 L130.104299,23.2038051 C129.416735,21.9394759 127.101575,19.0964952 123.162658,19.0964952 C118.397282,19.0964952 114.814425,23.0306839 114.814425,27.9716798 C114.814425,32.9969963 118.423372,36.9035048 123.162658,36.9035048 C127.432312,36.9035048 129.609345,33.7142816 130.104299,32.9111557 L132.556818,32.9111557" id="Fill-1___vWKmM7R7" fill="#FFFFFF"></path>
                <polygon id="Fill-2___vWKmM7R7" fill="#FFFFFF" points="135.556818 39 137.556818 39 137.556818 18 135.556818 18"></polygon>
                <g id="Group-6___vWKmM7R7" transform="translate(139.556818, 22.000000)" fill="#FFFFFF">
                    <path d="M0.0610849057,8.47333333 C0.0610849057,3.98575 3.3803066,0.0075 8.50648585,0.0075 C13.664033,0.0075 16.9832547,3.98575 16.9832547,8.50358333 C16.9832547,13.0215 13.664033,16.9695 8.50648585,16.9695 C3.3803066,16.9695 0.0610849057,13.0215 0.0610849057,8.50358333 L0.0610849057,8.47333333 Z M2.22382075,8.53391667 C2.22382075,12.1833333 4.98007075,14.9356667 8.50648585,14.9356667 C12.0634434,14.9356667 14.7899764,12.1833333 14.7899764,8.50358333 C14.7899764,4.82391667 12.0634434,2.07158333 8.50648585,2.07158333 C4.98007075,2.07158333 2.22382075,4.82391667 2.22382075,8.50358333 L2.22382075,8.53391667 L2.22382075,8.53391667 Z" id="Fill-3___vWKmM7R7"></path>
                    <path d="M34.9711085,16.5508333 L32.8966981,16.5508333 L32.8966981,13.6788333 C32.0076651,15.7733333 29.8449292,17.02975 26.9995283,16.9994167 C22.020283,16.9100833 20.2727594,13.5000833 20.2727594,9.58091667 L20.2727594,0.45575 L22.4363208,0.45575 L22.4363208,9.16108333 C22.4363208,12.6316667 23.9766509,14.9655833 27.5625,14.9353333 C30.8817217,14.9049167 32.7778302,12.9014167 32.7778302,9.5505 L32.7778302,0.45575 L34.9711085,0.45575 L34.9711085,16.5508333" id="Fill-5___vWKmM7R7"></path>
                </g>
                <path d="M193.556818,38.5630875 L191.442184,38.5630875 L191.442184,35.3289775 C190.311062,37.3969866 188.168233,39 184.833745,39 C179.713013,39 176.556818,35.0957086 176.556818,30.6954164 C176.556818,26.0338533 180.010721,22.4498399 184.803062,22.4498399 C188.317501,22.4498399 190.638623,24.4307587 191.353452,26.0618553 L191.353452,17 L193.556818,17 L193.556818,38.5630875 Z M178.729501,30.7249605 C178.760184,33.8719803 180.992574,36.9896182 185.160477,36.9896182 C186.94755,36.9896182 188.584525,36.2899739 189.715647,35.1547157 C190.876623,33.9886147 191.561599,32.3856013 191.502721,30.6378702 C191.502721,28.860595 190.817745,27.3446719 189.656769,26.237578 C188.525647,25.10094 186.917696,24.4307587 185.132282,24.4307587 C181.440379,24.4307587 178.729501,27.1690303 178.729501,30.6954164 L178.729501,30.7249605 L178.729501,30.7249605 Z" id="Fill-7___vWKmM7R7" fill="#FFFFFF"></path>
                <path d="M59.4437293,29.0833814 C59.2949875,26.9580623 57.1542833,24.5675415 54.0913466,24.6269875 C50.9390653,24.6269875 48.887291,26.899275 48.7385492,29.0833814 L59.4437293,29.0833814 Z M48.679235,31.4739022 C48.8277279,34.7205446 51.6823596,36.3730948 54.1208793,36.3730948 C56.2918628,36.3730948 57.8975776,35.3404465 58.7896137,33.6579262 L62.0012922,33.6579262 C61.2281334,35.4286275 60.0981767,36.7571063 58.7300506,37.6421275 C57.3622564,38.5572012 55.7565416,39 54.1208793,39 C48.8277279,39 45.5568182,34.7794143 45.5568182,30.5294348 C45.5568182,25.925414 49.1846917,22 54.0913466,22 C56.4106571,22 58.5221605,22.8557099 60.0682292,24.3611271 C61.9714277,26.2794554 62.7742021,28.7882096 62.5067489,31.4739022 L48.679235,31.4739022 L48.679235,31.4739022 Z" id="Fill-8___vWKmM7R7" fill="#FFFFFF"></path>
                <path d="M66.5945609,30.6191249 C66.6237331,33.5292457 68.6682345,36.1773119 72.1737109,36.1773119 C73.7215507,36.1773119 75.1531091,35.5372753 76.1459431,34.518526 C77.1685197,33.5002638 77.7526163,32.1034513 77.6941089,30.5316111 C77.6941089,28.9601767 77.080677,27.5929143 76.0877616,26.6321288 C75.0946016,25.6430108 73.7215507,25.0608568 72.1737109,25.0608568 C68.8143401,25.0608568 66.5945609,27.6219774 66.5945609,30.5900619 L66.5945609,30.6191249 Z M80.5568182,38.5344229 L77.6358459,38.5344229 L77.6358459,35.7697797 C76.7593749,37.3996649 74.9778312,39 71.7063846,39 C66.7112499,39 63.5568182,35.1586438 63.5568182,30.5900619 C63.5568182,25.6719927 67.1203946,22.2381687 71.6478772,22.2381687 C74.8899885,22.2381687 76.8763898,24.0426757 77.5189125,25.2939295 L77.5189125,17 L80.5568182,17 L80.5568182,38.5344229 L80.5568182,38.5344229 Z" id="Fill-9___vWKmM7R7" fill="#FFFFFF"></path>
                <path d="M85.5568182,39 L88.5568182,39 L88.5568182,23.5622743 L85.5568182,23.5622743 L85.5568182,39 Z M85.5568182,21.121872 L88.5568182,21.121872 L88.5568182,18 L85.5568182,18 L85.5568182,21.121872 Z" id="Fill-10___vWKmM7R7" fill="#FFFFFF"></path>
                <path d="M93.5783738,30.5588285 C93.6075598,32.9499257 95.2646726,36.1372044 99.1001917,36.1372044 C101.512085,36.1372044 103.22676,34.7794143 104.011537,32.9499257 C104.360147,32.2119551 104.534452,31.3857211 104.563638,30.5588285 C104.592824,29.7325946 104.447705,28.9063606 104.099095,28.1683077 C103.343503,26.3088491 101.570457,24.8627956 99.0418199,24.8627956 C95.7292155,24.8627956 93.5783738,27.5190945 93.5783738,30.5294348 L93.5783738,30.5588285 Z M107.556818,38.5278075 L104.534452,38.5278075 L104.534452,35.7238816 C103.43025,37.8785943 101.163476,39 98.6648348,39 C93.5783738,39 90.5568182,34.986405 90.5568182,30.5000412 C90.5568182,25.6008485 94.0729134,22 98.6648348,22 C101.803134,22 103.808046,23.7707013 104.534452,25.3055944 L104.534452,22.4722748 L107.556818,22.4722748 L107.556818,38.5278075 L107.556818,38.5278075 Z" id="Fill-11___vWKmM7R7" fill="#FFFFFF"></path>
                <path d="M42.5568182,23.172609 C42.5568182,19.7688769 39.7475386,17 36.2946072,17 C34.4016852,17 32.706033,17.8353766 31.5568182,19.1479447 C30.4075244,17.8353766 28.7119511,17 26.8191081,17 C23.3660978,17 20.5568182,19.7688769 20.5568182,23.172609 L20.5568182,23.172609 L20.5568182,38 L23.6057411,38 L23.6057411,23.172609 L23.60582,23.172609 C23.60582,21.4263295 25.0473098,20.0053336 26.8191081,20.0053336 C28.5909064,20.0053336 30.0323173,21.4263295 30.0323173,23.172609 L30.0323962,23.172609 L30.0323962,38 L33.0813191,38 L33.0813191,23.172609 L33.0812402,23.172609 C33.0812402,21.4263295 34.5228089,20.0053336 36.2946072,20.0053336 C38.0663266,20.0053336 39.5078164,21.4263295 39.5078164,23.172609 L39.5078953,23.172609 L39.5078953,38 L42.5568182,38 L42.5568182,23.172609 L42.5568182,23.172609" id="Fill-12___vWKmM7R7" fill="#FFFFFF"></path>
                <path d="M32.7563284,3.49320506 C31.2583237,3.49320506 29.8010108,3.82326485 28.4725551,4.45703014 C25.9461962,1.64390762 22.2828103,0 18.4167731,0 C11.0419625,0 5.0418702,5.86406482 5.0418702,13.0717247 C5.0418702,14.9065825 5.43449694,16.7104306 6.18737466,18.3701193 C2.71913143,20.3279111 0.556818182,23.9262966 0.556818182,27.9371188 C0.556818182,34.0371886 5.63504903,39 11.8768695,39 L16.056007,39 L16.056007,35.951267 L11.8768695,35.951267 C7.35508194,35.951267 3.67643664,32.3562745 3.67643664,27.9371188 C3.67643664,24.6190829 5.71950051,21.6906801 8.8817484,20.476805 L10.6067063,19.8145549 L9.6444761,18.2662802 C8.67433362,16.7053018 8.16148866,14.9091864 8.16148866,13.0717247 C8.16148866,7.54497891 12.7620761,3.04881187 18.4167731,3.04881187 C21.7498617,3.04881187 24.8876461,4.64371946 26.8102495,7.31615429 L27.69917,8.55172832 L28.9715132,7.69379382 C30.0898091,6.9405663 31.3984841,6.54201693 32.7563284,6.54201693 C36.4401409,6.54201693 39.4371997,9.47128767 39.4371997,13.0717247 L39.4371997,13.7966253 L42.5568182,13.7966253 L42.5568182,13.0717247 C42.5568182,7.78997906 38.1603353,3.49320506 32.7563284,3.49320506" id="Fill-13___vWKmM7R7" fill="#24B2DA"></path>
            </g>
        </g>
    </g>
</svg>